<?xml version="1.0" encoding="UTF-8"?><svg id="Layer_1" xmlns="http://www.w3.org/2000/svg" viewBox="0 0 297.26 81.78"><defs><style>.cls-1{fill:#808285;}.cls-2{fill:#607d8b;}.cls-3{fill:#78909c;}.cls-4{fill:none;stroke:#607d8b;stroke-miterlimit:10;stroke-width:4px;}</style></defs><path class="cls-2" d="m15.55,42.41c0,13.04,10.4,23.61,23.26,23.61,5.9,0,11.49-2.23,15.79-6.29v-6.1h2.32c9.54,0,11.54,8.8,11.9,13.65-8.17,9.89-18.94,14.49-30.04,14.49C17.04,81.78,0,63.95,0,42.43m0-3.08C0,17.67,17.22,0,38.77,0c10.37,0,20.08,4.09,27.42,11.53l-10.94,11.12c-4.39-4.46-10.24-6.92-16.44-6.92-12.86,0-23.26,10.59-23.26,23.61m54.72,13.14v5.38c-2.72-4.69-7.47-7.35-13.35-7.35h-20.8v-15.64h18.67c8.38,0,15.48,6.15,15.48,17.6Z"/><path class="cls-3" d="m111.69,59.25l-9.05,9.05c-.71.71-1.86.71-2.56,0s-.71-1.86,0-2.56l5.96-5.96h-17.35c-1,0-1.81-.81-1.81-1.81s.81-1.81,1.81-1.81h17.36l-5.97-5.96c-.71-.71-.71-1.86,0-2.56s1.86-.71,2.56,0l9.05,9.05c.71.71.71,1.86,0,2.56h0Z"/><circle class="cls-4" cx="99.54" cy="57.96" r="21.82"/><path class="cls-1" d="m129.47,80.95v-45.99h6.81v39.92h20.64v6.07h-27.45Z"/><path class="cls-1" d="m180.22,34.2c13.55,0,22.88,10.13,22.88,23.79s-9.33,23.79-22.88,23.79-22.88-10.14-22.88-23.79,9.33-23.79,22.88-23.79Zm0,6.14c-9.74,0-15.87,7.52-15.87,17.65s6.13,17.65,15.87,17.65,15.87-7.59,15.87-17.65-6.27-17.65-15.87-17.65Z"/><path class="cls-1" d="m231.35,34.2c13.55,0,22.88,10.13,22.88,23.79s-9.33,23.79-22.88,23.79-22.88-10.14-22.88-23.79,9.33-23.79,22.88-23.79Zm0,6.14c-9.74,0-15.87,7.52-15.87,17.65s6.13,17.65,15.87,17.65,15.87-7.59,15.87-17.65-6.27-17.65-15.87-17.65Z"/><path class="cls-1" d="m288.81,80.95l-16.21-20-4.29,4.9v15.1h-6.81v-45.99h6.81v22.82l19-22.82h8.45l-18.73,21.79,20.23,24.2h-8.45Z"/></svg>